<svg width="184" height="44" viewBox="0 0 184 44" fill="none" xmlns="http://www.w3.org/2000/svg" role="img" aria-labelledby="title">
  <title id="title">VendorBridge</title>
  <rect x="2" y="2" width="40" height="40" rx="8" fill="#1D4ED8"/>
  <path d="M12 22.4L20.1 30L32.8 14" stroke="white" stroke-width="4" stroke-linecap="round" stroke-linejoin="round"/>
  <path d="M54 13.5L62.1 32H58.3L56.6 27.9H48.7L47 32H43.4L51.5 13.5H54ZM52.6 18.1L49.9 24.9H55.4L52.6 18.1ZM67.9 32L62.3 18.4H65.9L69.6 28.2L73.3 18.4H76.8L71.2 32H67.9ZM84.1 32.3C80 32.3 77.3 29.5 77.3 25.2C77.3 21 80 18.1 83.9 18.1C87.8 18.1 90.3 20.8 90.3 24.9V26H80.8C81.2 28.2 82.6 29.4 84.4 29.4C85.9 29.4 87 28.8 87.7 27.8L90 29.6C88.8 31.3 86.7 32.3 84.1 32.3ZM80.9 23.8H86.9C86.7 22.1 85.5 21 83.9 21C82.4 21 81.2 22.1 80.9 23.8ZM93.1 32V18.4H96.4V20.4C97.3 19 98.8 18.1 100.6 18.1C103.7 18.1 105.4 20.1 105.4 23.6V32H102V24.1C102 22.2 101.1 21.1 99.5 21.1C97.7 21.1 96.5 22.4 96.5 24.5V32H93.1ZM114.8 32.3C111 32.3 108.3 29.4 108.3 25.2C108.3 21 111 18.1 114.7 18.1C116.6 18.1 118 18.8 119 20V12.5H122.4V32H119.1V30.2C118.1 31.6 116.7 32.3 114.8 32.3ZM115.5 29.3C117.7 29.3 119.1 27.7 119.1 25.2C119.1 22.7 117.7 21.1 115.5 21.1C113.3 21.1 111.8 22.7 111.8 25.2C111.8 27.7 113.3 29.3 115.5 29.3ZM132.1 32.3C128 32.3 125.3 29.5 125.3 25.2C125.3 21 128 18.1 131.9 18.1C135.8 18.1 138.3 20.8 138.3 24.9V26H128.8C129.2 28.2 130.6 29.4 132.4 29.4C133.9 29.4 135 28.8 135.7 27.8L138 29.6C136.8 31.3 134.7 32.3 132.1 32.3ZM128.9 23.8H134.9C134.7 22.1 133.5 21 131.9 21C130.4 21 129.2 22.1 128.9 23.8ZM141.1 32V18.4H144.4V20.5C145.2 19 146.6 18.2 148.4 18.2C148.8 18.2 149.2 18.2 149.5 18.3V21.5C149 21.4 148.6 21.4 148.1 21.4C145.9 21.4 144.5 22.7 144.5 25V32H141.1ZM151.8 32V12.5H155.2V20.1C156.2 18.8 157.6 18.1 159.5 18.1C163.2 18.1 165.9 21 165.9 25.2C165.9 29.4 163.2 32.3 159.4 32.3C157.5 32.3 156.1 31.5 155.1 30.2V32H151.8ZM158.7 29.3C160.9 29.3 162.4 27.7 162.4 25.2C162.4 22.7 160.9 21.1 158.7 21.1C156.5 21.1 155.1 22.7 155.1 25.2C155.1 27.7 156.5 29.3 158.7 29.3Z" fill="#111827"/>
</svg>
